<?xml version="1.0" encoding="UTF-8" standalone="no"?>
<!DOCTYPE svg PUBLIC "-//W3C//DTD SVG 1.1//EN" "http://www.w3.org/Graphics/SVG/1.1/DTD/svg11.dtd">
<svg xmlns="http://www.w3.org/2000/svg" xmlns:xlink="http://www.w3.org/1999/xlink" xmlns:serif="http://www.serif.com/" width="700" height="700" viewBox="0 0 456 456" fill="#ffffff" version="1.1">

	<!-- Group for the icon, scaled and positioned -->
	<g id="icon-group" transform="translate(80 287.04) scale(0.28)">
		<path d="M180-120q-25 0-42.5-17.5T120-180v-76l160-142v278H180Zm140 0v-160h320v160H320Zm360 0v-328L509-600l121-107 190 169q10 9 15 20.5t5 24.5v313q0 25-17.5 42.5T780-120H680ZM120-310v-183q0-13 5-25t15-20l300-266q8-8 18.5-11.5T480-819q11 0 21.5 3.5T520-804l80 71-480 423Z"/>
	</g>

	<!-- Group for the text, positioned -->
	<g id="text-group" transform="translate(75 264.6)">
		<!-- Original text paths (removed redundant xmlns) -->
		<path d="M11.65 48.85Q9.15 48.85 7.18 48.60Q5.20 48.35 3.55 47.80Q1.90 47.25 0.25 46.40L0.25 39.80Q2.35 41.50 5.20 42.48Q8.05 43.45 10.95 43.45Q13.65 43.45 15.02 42.38Q16.40 41.30 16.40 39.30Q16.40 37.75 15.27 36.80Q14.15 35.85 12.30 35.15Q10.45 34.45 8.25 33.70Q6.70 33.15 5.22 32.48Q3.75 31.80 2.57 30.75Q1.40 29.70 0.70 28.13Q0 26.55 0 24.25Q0 22.40 0.70 20.60Q1.40 18.80 2.85 17.35Q4.30 15.90 6.63 15.05Q8.95 14.20 12.10 14.20Q14.15 14.20 15.68 14.45Q17.20 14.70 18.57 15.20Q19.95 15.70 21.50 16.45L21.50 23.05Q20.30 22.20 18.95 21.42Q17.60 20.65 16.07 20.15Q14.55 19.65 12.75 19.60Q10.95 19.55 9.65 20Q8.35 20.45 7.65 21.35Q6.95 22.25 6.95 23.50Q6.95 25.05 7.82 25.97Q8.70 26.90 10.25 27.50Q11.80 28.10 13.75 28.70Q15.70 29.30 17.45 30.05Q19.20 30.80 20.53 31.88Q21.85 32.95 22.60 34.55Q23.35 36.15 23.35 38.45Q23.35 41.25 22.07 43.63Q20.80 46 18.20 47.42Q15.60 48.85 11.65 48.85ZM51.90 31.45L51.90 48.25L45.55 48.25L45.55 32.55Q45.55 31.60 45.30 30.72Q45.05 29.85 44.45 29.18Q43.85 28.50 42.80 28.13Q41.75 27.75 40.10 27.75Q38.85 27.75 37.70 28Q36.55 28.25 35.60 28.65L35.60 48.25L29.25 48.25L29.25 25.15Q30.30 24.60 31.75 24.10Q33.20 23.60 34.90 23.22Q36.60 22.85 38.35 22.63Q40.10 22.40 41.65 22.40Q45.10 22.40 47.38 23.32Q49.65 24.25 50.78 26.25Q51.90 28.25 51.90 31.45M45.05 26.65Q46.65 25.30 48.70 24.38Q50.75 23.45 53.03 22.92Q55.30 22.40 57.35 22.40Q60.80 22.40 63.08 23.32Q65.35 24.25 66.47 26.25Q67.60 28.25 67.60 31.45L67.60 48.25L61.25 48.25L61.25 32.55Q61.25 31.60 61 30.72Q60.75 29.85 60.15 29.18Q59.55 28.50 58.50 28.13Q57.45 27.75 55.80 27.75Q54.55 27.75 53.40 28.10Q52.25 28.45 51.30 29.15L45.05 26.65ZM84.05 49Q81.90 49 80 48.60Q78.10 48.20 76.60 47.25Q75.10 46.30 74.22 44.67Q73.35 43.05 73.35 40.65Q73.35 38.05 74.40 36.27Q75.45 34.50 77.47 33.58Q79.50 32.65 82.45 32.65Q84.25 32.65 85.80 32.98Q87.35 33.30 88.60 33.88Q89.85 34.45 90.65 35.10L91.10 38.65Q90.05 37.95 88.42 37.52Q86.80 37.10 84.90 37.10Q82.25 37.10 80.95 37.95Q79.65 38.80 79.65 40.60Q79.65 41.80 80.35 42.65Q81.05 43.50 82.15 43.90Q83.25 44.30 84.45 44.30Q87.20 44.30 88.42 43.92Q89.65 43.55 89.65 42.30L89.65 32.40Q89.65 29.95 88.10 28.82Q86.55 27.70 83.75 27.70Q81.60 27.70 79.35 28.42Q77.10 29.15 75.70 30.30L75.70 24.55Q77.05 23.65 79.75 23.02Q82.45 22.40 85.55 22.40Q86.85 22.40 88.30 22.63Q89.75 22.85 91.10 23.40Q92.45 23.95 93.55 24.95Q94.65 25.95 95.30 27.42Q95.95 28.90 95.95 31L95.90 42.95Q95.90 45.25 94.42 46.58Q92.95 47.90 90.27 48.45Q87.60 49 84.05 49ZM102.95 48.25L102.95 25.50Q103.65 25 105.42 24.27Q107.20 23.55 109.55 22.97Q111.90 22.40 114.30 22.40Q116.10 22.40 117.17 22.67Q118.25 22.95 118.90 23.35L118.90 28.15Q117.90 28 116.62 27.90Q115.35 27.80 114.02 27.82Q112.70 27.85 111.47 27.95Q110.25 28.05 109.30 28.20L109.30 48.25L102.95 48.25ZM133.30 49.05Q129.40 49.05 127.35 47.13Q125.30 45.20 125.30 41.55L125.30 28.05L121.40 28.05L121.40 23.05L125.30 23.05L125.30 16.05L131.90 16.05L131.90 23.05L137.70 23.05L137.70 28.05L131.90 28.05L131.90 40.55Q131.90 42.05 132.47 42.80Q133.05 43.55 134.55 43.55Q135.35 43.55 136.22 43.30Q137.10 43.05 137.70 42.65L137.70 48.15Q136.75 48.65 135.57 48.85Q134.40 49.05 133.30 49.05ZM157.85 48.25L157.85 14.90L164.65 14.90L164.65 28.80L178.50 28.80L178.50 14.90L185.30 14.90L185.30 48.25L178.50 48.25L178.50 34.50L164.65 34.50L164.65 48.25L157.85 48.25ZM203.65 49Q197.40 49 194.30 45.55Q191.20 42.10 191.20 35.60Q191.20 28.60 194.38 25.45Q197.55 22.30 203.60 22.30Q207.80 22.30 210.58 23.77Q213.35 25.25 214.75 28.20Q216.15 31.15 216.15 35.60Q216.15 42.10 212.90 45.55Q209.65 49 203.65 49M203.60 43.80Q205.80 43.80 207.18 42.80Q208.55 41.80 209.20 39.95Q209.85 38.10 209.85 35.60Q209.85 32.75 209.18 30.95Q208.50 29.15 207.13 28.30Q205.75 27.45 203.60 27.45Q201.40 27.45 200.05 28.35Q198.70 29.25 198.10 31.05Q197.50 32.85 197.50 35.60Q197.50 39.55 198.93 41.67Q200.35 43.80 203.60 43.80ZM244.40 31.45L244.40 48.25L238.05 48.25L238.05 32.55Q238.05 31.60 237.80 30.72Q237.55 29.85 236.95 29.18Q236.35 28.50 235.30 28.13Q234.25 27.75 232.60 27.75Q231.35 27.75 230.20 28Q229.05 28.25 228.10 28.65L228.10 48.25L221.75 48.25L221.75 25.15Q222.80 24.60 224.25 24.10Q225.70 23.60 227.40 23.22Q229.10 22.85 230.85 22.63Q232.60 22.40 234.15 22.40Q237.60 22.40 239.88 23.32Q242.15 24.25 243.28 26.25Q244.40 28.25 244.40 31.45M237.55 26.65Q239.15 25.30 241.20 24.38Q243.25 23.45 245.53 22.92Q247.80 22.40 249.85 22.40Q253.30 22.40 255.57 23.32Q257.85 24.25 258.98 26.25Q260.10 28.25 260.10 31.45L260.10 48.25L253.75 48.25L253.75 32.55Q253.75 31.60 253.50 30.72Q253.25 29.85 252.65 29.18Q252.05 28.50 251 28.13Q249.95 27.75 248.30 27.75Q247.05 27.75 245.90 28.10Q244.75 28.45 243.80 29.15L237.55 26.65ZM278.25 49Q274.50 49 271.68 47.45Q268.85 45.90 267.30 42.98Q265.75 40.05 265.75 35.90Q265.75 29.30 268.93 25.80Q272.10 22.30 277.90 22.30Q282 22.30 284.55 24.10Q287.10 25.90 288.25 29.25Q289.40 32.60 289.35 37.20L269.85 37.20L269.40 32.90L284.30 32.90L283.10 34.70Q283 30.75 281.73 29.02Q280.45 27.30 277.65 27.30Q275.95 27.30 274.70 28.07Q273.45 28.85 272.78 30.65Q272.10 32.45 272.10 35.60Q272.10 39.50 273.93 41.55Q275.75 43.60 279.55 43.60Q281.10 43.60 282.53 43.30Q283.95 43 285.18 42.52Q286.40 42.05 287.30 41.65L287.30 47.30Q285.50 48.05 283.30 48.52Q281.10 49 278.25 49Z"/>
	</g>
</svg>